<svg width="82" height="16" viewBox="0 0 82 16" fill="none" xmlns="http://www.w3.org/2000/svg">
<path d="M0.666667 8C0.666667 10.9455 3.05448 13.3333 6 13.3333C8.94552 13.3333 11.3333 10.9455 11.3333 8C11.3333 5.05448 8.94552 2.66667 6 2.66667C3.05448 2.66667 0.666667 5.05448 0.666667 8ZM81.7071 8.70711C82.0976 8.31658 82.0976 7.68342 81.7071 7.29289L75.3431 0.928932C74.9526 0.538408 74.3195 0.538408 73.9289 0.928932C73.5384 1.31946 73.5384 1.95262 73.9289 2.34315L79.5858 8L73.9289 13.6569C73.5384 14.0474 73.5384 14.6805 73.9289 15.0711C74.3195 15.4616 74.9526 15.4616 75.3431 15.0711L81.7071 8.70711ZM6 9H81V7H6V9Z" fill="white"/>
</svg>
